STARTFONT 2.1
FONT terminal-reversed
SIZE 12 72 72
FONTBOUNDINGBOX 6 12 0 -2
STARTPROPERTIES 20
FAMILY_NAME "Terminus"
FOUNDRY "xos4"
SETWIDTH_NAME "Normal"
ADD_STYLE_NAME ""
COPYRIGHT "Copyright (C) 2012 Dimitar Toshkov Zhekov"
NOTICE "Licensed under the SIL Open Font License, Version 1.1"
WEIGHT_NAME "Medium"
SLANT "R"
PIXEL_SIZE 12
POINT_SIZE 120
RESOLUTION_X 72
RESOLUTION_Y 72
SPACING "C"
AVERAGE_WIDTH 60
CHARSET_REGISTRY "ISO10646"
CHARSET_ENCODING "1"
MIN_SPACE 6
FONT_ASCENT 10
FONT_DESCENT 2
DEFAULT_CHAR 65533
ENDPROPERTIES
CHARS 30
STARTCHAR char0
BITMAP
ENCODING 0
SWIDTH 500 0
DWIDTH 6 0
BBX 6 12 0 -2
00
00
D8
88
00
88
88
00
88
D8
00
00
ENDCHAR
STARTCHAR space
BITMAP
ENCODING 32
SWIDTH 500 0
DWIDTH 6 0
BBX 6 12 0 -2
00
00
00
00
00
00
00
00
00
00
00
00
ENDCHAR
STARTCHAR exclam
BITMAP
ENCODING 33
SWIDTH 500 0
DWIDTH 6 0
BBX 6 12 0 -2
00
00
20
20
20
20
20
00
20
20
00
00
ENDCHAR
STARTCHAR quotedbl
BITMAP
ENCODING 34
SWIDTH 500 0
DWIDTH 6 0
BBX 6 12 0 -2
00
50
50
50
00
00
00
00
00
00
00
00
ENDCHAR
STARTCHAR numbersign
BITMAP
ENCODING 35
SWIDTH 500 0
DWIDTH 6 0
BBX 6 12 0 -2
00
00
50
50
F8
50
50
F8
50
50
00
00
ENDCHAR
STARTCHAR dollar
BITMAP
ENCODING 36
SWIDTH 500 0
DWIDTH 6 0
BBX 6 12 0 -2
00
00
20
70
A8
28
70
A0
A8
70
20
00
ENDCHAR
STARTCHAR percent
BITMAP
ENCODING 37
SWIDTH 500 0
DWIDTH 6 0
BBX 6 12 0 -2
00
00
90
A8
50
40
20
A0
50
90
00
00
ENDCHAR
STARTCHAR ampersand
BITMAP
ENCODING 38
SWIDTH 500 0
DWIDTH 6 0
BBX 6 12 0 -2
00
00
20
50
50
20
B0
48
48
B0
00
00
ENDCHAR
STARTCHAR quotesingle
BITMAP
ENCODING 39
SWIDTH 500 0
DWIDTH 6 0
BBX 6 12 0 -2
00
20
20
20
00
00
00
00
00
00
00
00
ENDCHAR
STARTCHAR parenleft
BITMAP
ENCODING 40
SWIDTH 500 0
DWIDTH 6 0
BBX 6 12 0 -2
00
00
40
20
10
10
10
10
20
40
00
00
ENDCHAR
STARTCHAR parenright
BITMAP
ENCODING 41
SWIDTH 500 0
DWIDTH 6 0
BBX 6 12 0 -2
00
00
10
20
40
40
40
40
20
10
00
00
ENDCHAR
STARTCHAR asterisk
BITMAP
ENCODING 42
SWIDTH 500 0
DWIDTH 6 0
BBX 6 12 0 -2
00
00
00
00
50
20
F8
20
50
00
00
00
ENDCHAR
STARTCHAR plus
BITMAP
ENCODING 43
SWIDTH 500 0
DWIDTH 6 0
BBX 6 12 0 -2
00
00
00
00
20
20
F8
20
20
00
00
00
ENDCHAR
STARTCHAR comma
BITMAP
ENCODING 44
SWIDTH 500 0
DWIDTH 6 0
BBX 6 12 0 -2
00
00
00
00
00
00
00
00
20
20
10
00
ENDCHAR
STARTCHAR hyphen
BITMAP
ENCODING 45
SWIDTH 500 0
DWIDTH 6 0
BBX 6 12 0 -2
00
00
00
00
00
00
F8
00
00
00
00
00
ENDCHAR
STARTCHAR period
BITMAP
ENCODING 46
SWIDTH 500 0
DWIDTH 6 0
BBX 6 12 0 -2
00
00
00
00
00
00
00
00
20
20
00
00
ENDCHAR
STARTCHAR slash
BITMAP
ENCODING 47
SWIDTH 500 0
DWIDTH 6 0
BBX 6 12 0 -2
00
00
80
80
40
40
20
20
10
10
00
00
ENDCHAR
STARTCHAR zero
BITMAP
ENCODING 48
SWIDTH 500 0
DWIDTH 6 0
BBX 6 12 0 -2
00
00
70
88
C8
A8
98
88
88
70
00
00
ENDCHAR
STARTCHAR one
BITMAP
ENCODING 49
SWIDTH 500 0
DWIDTH 6 0
BBX 6 12 0 -2
00
00
20
30
20
20
20
20
20
70
00
00
ENDCHAR
STARTCHAR two
BITMAP
ENCODING 50
SWIDTH 500 0
DWIDTH 6 0
BBX 6 12 0 -2
00
00
70
88
88
40
20
10
08
F8
00
00
ENDCHAR
STARTCHAR three
BITMAP
ENCODING 51
SWIDTH 500 0
DWIDTH 6 0
BBX 6 12 0 -2
00
00
70
88
80
60
80
80
88
70
00
00
ENDCHAR
STARTCHAR four
BITMAP
ENCODING 52
SWIDTH 500 0
DWIDTH 6 0
BBX 6 12 0 -2
00
00
80
C0
A0
90
88
F8
80
80
00
00
ENDCHAR
STARTCHAR five
BITMAP
ENCODING 53
SWIDTH 500 0
DWIDTH 6 0
BBX 6 12 0 -2
00
00
F8
08
08
78
80
80
88
70
00
00
ENDCHAR
STARTCHAR six
BITMAP
ENCODING 54
SWIDTH 500 0
DWIDTH 6 0
BBX 6 12 0 -2
00
00
70
08
08
78
88
88
88
70
00
00
ENDCHAR
STARTCHAR seven
BITMAP
ENCODING 55
SWIDTH 500 0
DWIDTH 6 0
BBX 6 12 0 -2
00
00
F8
80
80
40
40
20
20
20
00
00
ENDCHAR
STARTCHAR eight
BITMAP
ENCODING 56
SWIDTH 500 0
DWIDTH 6 0
BBX 6 12 0 -2
00
00
70
88
88
70
88
88
88
70
00
00
ENDCHAR
STARTCHAR nine
BITMAP
ENCODING 57
SWIDTH 500 0
DWIDTH 6 0
BBX 6 12 0 -2
00
00
70
88
88
88
F0
80
80
70
00
00
ENDCHAR
STARTCHAR colon
BITMAP
ENCODING 58
SWIDTH 500 0
DWIDTH 6 0
BBX 6 12 0 -2
00
00
00
00
20
20
00
00
20
20
00
00
ENDCHAR
STARTCHAR semicolon
BITMAP
ENCODING 59
SWIDTH 500 0
DWIDTH 6 0
BBX 6 12 0 -2
00
00
00
00
20
20
00
00
20
20
10
00
ENDCHAR
STARTCHAR less
BITMAP
ENCODING 60
SWIDTH 500 0
DWIDTH 6 0
BBX 6 12 0 -2
00
00
00
80
40
20
10
20
40
80
00
00
ENDCHAR
ENDFONT
